<svg width="172" height="28" viewBox="0 0 172 28" fill="none" xmlns="http://www.w3.org/2000/svg">
<path d="M13.9697 20.6871L21.1642 25.0294L19.255 16.8454L25.6113 11.3389L17.241 10.6288L13.9697 2.9104L10.6984 10.6288L2.32812 11.3389L8.68442 16.8454L6.7752 25.0294L13.9697 20.6871Z" fill="#121276"/>
<path d="M49.9697 20.6871L57.1642 25.0294L55.255 16.8454L61.6113 11.3389L53.241 10.6288L49.9697 2.9104L46.6984 10.6288L38.3281 11.3389L44.6844 16.8454L42.7752 25.0294L49.9697 20.6871Z" fill="#121276"/>
<path d="M85.9697 20.6871L93.1642 25.0294L91.255 16.8454L97.6113 11.3389L89.241 10.6288L85.9697 2.9104L82.6984 10.6288L74.3281 11.3389L80.6844 16.8454L78.7752 25.0294L85.9697 20.6871Z" fill="#121276"/>
<path d="M169.611 11.3389L161.241 10.6171L157.97 2.9104L154.698 10.6288L146.328 11.3389L152.684 16.8454L150.775 25.0294L157.97 20.6871L165.164 25.0294L163.267 16.8454L169.611 11.3389ZM157.97 18.5101L153.592 21.1527L154.757 16.1701L150.892 12.8174L155.991 12.375L157.97 7.68344L159.96 12.3866L165.059 12.829L161.194 16.1818L162.359 21.1644L157.97 18.5101Z" fill="#121276"/>
<path d="M133.611 11.3389L125.241 10.6171L121.97 2.9104L118.698 10.6288L110.328 11.3389L116.684 16.8454L114.775 25.0294L121.97 20.6871L129.164 25.0294L127.267 16.8454L133.611 11.3389ZM121.97 18.5101V7.68344L123.96 12.3866L129.059 12.829L125.194 16.1818L126.359 21.1644L121.97 18.5101Z" fill="#121276"/>
</svg>
