<svg width="172" height="28" viewBox="0 0 172 28" fill="none" xmlns="http://www.w3.org/2000/svg">
<path d="M13.9699 20.6871L21.1644 25.0294L19.2552 16.8454L25.6115 11.3389L17.2412 10.6288L13.9699 2.9104L10.6987 10.6288L2.32837 11.3389L8.68466 16.8454L6.77545 25.0294L13.9699 20.6871Z" fill="#121276"/>
<path d="M49.9699 20.6871L57.1644 25.0294L55.2552 16.8454L61.6115 11.3389L53.2412 10.6288L49.9699 2.9104L46.6987 10.6288L38.3284 11.3389L44.6847 16.8454L42.7754 25.0294L49.9699 20.6871Z" fill="#121276"/>
<path d="M85.9699 20.6871L93.1644 25.0294L91.2552 16.8454L97.6115 11.3389L89.2412 10.6288L85.9699 2.9104L82.6987 10.6288L74.3284 11.3389L80.6847 16.8454L78.7754 25.0294L85.9699 20.6871Z" fill="#121276"/>
<path d="M121.97 20.6871L129.164 25.0294L127.255 16.8454L133.611 11.3389L125.241 10.6288L121.97 2.9104L118.699 10.6288L110.328 11.3389L116.685 16.8454L114.775 25.0294L121.97 20.6871Z" fill="#121276"/>
<path d="M157.97 20.6871L165.164 25.0294L163.255 16.8454L169.611 11.3389L161.241 10.6288L157.97 2.9104L154.699 10.6288L146.328 11.3389L152.685 16.8454L150.775 25.0294L157.97 20.6871Z" fill="#121276"/>
</svg>
