<svg width="36" height="20" viewBox="0 0 36 20" fill="none" xmlns="http://www.w3.org/2000/svg">
<path fill-rule="evenodd" clip-rule="evenodd" d="M35.2071 0.292893C35.5976 0.683418 35.5976 1.31658 35.2071 1.70711L20.9571 15.9571C20.5666 16.3476 19.9334 16.3476 19.5429 15.9571L12.75 9.16421L2.20711 19.7071C1.81658 20.0976 1.18342 20.0976 0.792893 19.7071C0.402369 19.3166 0.402369 18.6834 0.792893 18.2929L12.0429 7.04289C12.4334 6.65237 13.0666 6.65237 13.4571 7.04289L20.25 13.8358L33.7929 0.292893C34.1834 -0.0976311 34.8166 -0.0976311 35.2071 0.292893Z" fill="black"/>
<path fill-rule="evenodd" clip-rule="evenodd" d="M24.5 1C24.5 0.447715 24.9477 0 25.5 0H34.5C35.0523 0 35.5 0.447715 35.5 1V10C35.5 10.5523 35.0523 11 34.5 11C33.9477 11 33.5 10.5523 33.5 10V2H25.5C24.9477 2 24.5 1.55228 24.5 1Z" fill="black"/>
</svg>
