<svg width="351" height="44" viewBox="0 0 351 44" fill="none" xmlns="http://www.w3.org/2000/svg">
<path d="M84.1637 35C80.8313 35 77.9505 34.412 75.5213 33.2361C73.1232 32.0292 71.2701 30.3736 69.9621 28.2692C68.654 26.134 68 23.6737 68 20.8886C68 18.1344 68.4827 15.5659 69.4482 13.183C70.4448 10.8002 71.8307 8.74226 73.6059 7.00928C75.4123 5.24536 77.5456 3.86826 80.006 2.87799C82.4975 1.88771 85.2693 1.39257 88.3214 1.39257C91.249 1.39257 93.8339 1.88771 96.0763 2.87799C98.3187 3.86826 100.016 5.29178 101.168 7.14854L95.7026 11.6048C94.8617 10.3669 93.7872 9.42308 92.4792 8.77321C91.1711 8.12334 89.6139 7.79841 87.8076 7.79841C85.9701 7.79841 84.3039 8.12334 82.809 8.77321C81.3141 9.39213 80.0216 10.2896 78.9315 11.4655C77.8726 12.6105 77.0629 13.9567 76.5023 15.504C75.9417 17.0513 75.6614 18.6914 75.6614 20.4244C75.6614 22.0645 76.0196 23.5035 76.7359 24.7414C77.4522 25.9483 78.4955 26.8921 79.8659 27.5729C81.2362 28.2538 82.8868 28.5942 84.8178 28.5942C86.4995 28.5942 88.0723 28.3002 89.5361 27.7122C90.9998 27.0933 92.3234 26.1339 93.5069 24.8342L97.9917 29.3833C96.2787 31.3638 94.2388 32.8028 91.8719 33.7003C89.5361 34.5668 86.9667 35 84.1637 35Z" fill="white"/>
<path d="M113.027 34.8143C110.473 34.8143 108.246 34.3501 106.347 33.4217C104.447 32.4934 102.967 31.1936 101.908 29.5225C100.881 27.8515 100.367 25.8864 100.367 23.6273C100.367 20.8422 101.021 18.3665 102.329 16.2003C103.637 14.0031 105.428 12.2701 107.701 11.0013C110.006 9.73254 112.622 9.09814 115.55 9.09814C118.135 9.09814 120.361 9.56234 122.23 10.4907C124.13 11.4191 125.593 12.7188 126.621 14.3899C127.68 16.0301 128.21 17.9951 128.21 20.2851C128.21 23.0393 127.556 25.515 126.248 27.7122C124.939 29.9094 123.149 31.6424 120.875 32.9111C118.602 34.1799 115.986 34.8143 113.027 34.8143ZM113.494 28.8727C114.927 28.8727 116.188 28.5323 117.278 27.8515C118.399 27.1397 119.271 26.1649 119.894 24.9271C120.517 23.6892 120.828 22.2502 120.828 20.6101C120.828 18.939 120.33 17.5928 119.334 16.5716C118.337 15.5504 116.935 15.0398 115.129 15.0398C113.696 15.0398 112.42 15.3957 111.298 16.1074C110.208 16.7882 109.336 17.7476 108.682 18.9854C108.059 20.2233 107.748 21.6622 107.748 23.3024C107.748 25.0044 108.246 26.366 109.243 27.3873C110.24 28.3775 111.657 28.8727 113.494 28.8727Z" fill="white"/>
<path d="M150.087 9.09814C152.235 9.09814 154.057 9.54686 155.552 10.4443C157.047 11.3108 158.106 12.595 158.729 14.2971C159.352 15.9991 159.414 18.1034 158.916 20.6101L156.113 34.443H148.825L151.535 21.0743C151.908 19.2485 151.753 17.8404 151.068 16.8501C150.414 15.8599 149.199 15.3647 147.424 15.3647C145.586 15.3647 144.045 15.8908 142.799 16.943C141.584 17.9951 140.743 19.6043 140.276 21.7706L137.754 34.443H130.466L135.464 9.46949H142.378L140.93 16.5252L139.902 14.3899C141.117 12.5641 142.612 11.2334 144.387 10.3979C146.194 9.53139 148.093 9.09814 150.087 9.09814Z" fill="white"/>
<path d="M171.922 34.8143C169.711 34.8143 167.624 34.5668 165.662 34.0716C163.731 33.5765 162.236 32.9576 161.177 32.2149L163.98 26.9695C165.07 27.6813 166.394 28.2538 167.951 28.687C169.539 29.1202 171.128 29.3369 172.716 29.3369C174.429 29.3369 175.675 29.1202 176.453 28.687C177.232 28.2538 177.621 27.6658 177.621 26.9231C177.621 26.3351 177.294 25.9019 176.64 25.6233C175.986 25.3139 175.161 25.0663 174.164 24.8806C173.168 24.695 172.093 24.4783 170.941 24.2308C169.82 23.9832 168.745 23.6428 167.717 23.2096C166.721 22.7454 165.896 22.0955 165.241 21.2599C164.619 20.3935 164.307 19.2639 164.307 17.8714C164.307 15.9836 164.837 14.3899 165.896 13.0902C166.986 11.7905 168.48 10.8002 170.38 10.1194C172.311 9.43855 174.491 9.09814 176.92 9.09814C178.665 9.09814 180.362 9.28382 182.013 9.65517C183.663 10.0265 185.065 10.5371 186.217 11.187L183.601 16.4788C182.417 15.7361 181.172 15.2409 179.864 14.9934C178.587 14.7149 177.356 14.5756 176.173 14.5756C174.46 14.5756 173.214 14.8232 172.436 15.3183C171.688 15.7825 171.315 16.355 171.315 17.0358C171.315 17.6238 171.626 18.088 172.249 18.4284C172.903 18.7378 173.728 19.0009 174.725 19.2175C175.721 19.4032 176.796 19.6198 177.948 19.8674C179.101 20.084 180.175 20.4244 181.172 20.8886C182.168 21.3218 182.978 21.9562 183.601 22.7918C184.255 23.5964 184.582 24.695 184.582 26.0875C184.582 27.9752 184.021 29.5844 182.9 30.9151C181.81 32.2149 180.315 33.1897 178.415 33.8395C176.516 34.4894 174.351 34.8143 171.922 34.8143Z" fill="white"/>
<path d="M198.328 34.8143C196.273 34.8143 194.497 34.3811 193.002 33.5146C191.508 32.6171 190.449 31.3174 189.826 29.6154C189.203 27.9134 189.141 25.809 189.639 23.3024L192.395 9.46949H199.683L197.02 22.8382C196.646 24.664 196.786 26.0721 197.44 27.0623C198.126 28.0526 199.325 28.5477 201.038 28.5477C202.844 28.5477 204.354 28.0217 205.569 26.9695C206.815 25.9173 207.64 24.3081 208.045 22.1419L210.614 9.46949H217.902L212.903 34.443H205.99L207.391 27.3873L208.419 29.5225C207.235 31.3484 205.756 32.6945 203.981 33.561C202.205 34.3966 200.321 34.8143 198.328 34.8143Z" fill="white"/>
<path d="M219.655 34.443L226.569 0H233.857L226.943 34.443H219.655Z" fill="white"/>
<path d="M243.937 34.8143C242.131 34.8143 240.589 34.4584 239.312 33.7467C238.035 33.004 237.117 31.9518 236.556 30.5902C236.027 29.1976 235.949 27.5575 236.322 25.6698L240.667 3.94562H247.955L243.61 25.6233C243.423 26.6755 243.532 27.5111 243.937 28.13C244.342 28.7489 245.089 29.0584 246.179 29.0584C246.678 29.0584 247.176 28.981 247.674 28.8263C248.204 28.6715 248.687 28.4549 249.123 28.1764L250.197 33.3289C249.294 33.8859 248.297 34.2728 247.207 34.4894C246.117 34.706 245.027 34.8143 243.937 34.8143ZM234.454 15.5968L235.575 10.0265H253L251.879 15.5968H234.454Z" fill="white"/>
<path d="M13.1481 35.4497C9.97589 35.4497 7.33242 34.8233 5.21764 33.5705C3.10287 32.3177 1.61008 30.5794 0.739293 28.3557C-0.100398 26.1007 -0.224796 23.4541 0.366097 20.4161L4.00476 2H11.6086L7.96996 20.2752C7.69007 21.7472 7.61232 23.0313 7.73671 24.1275C7.86111 25.2237 8.17211 26.132 8.66971 26.8523C9.1984 27.5727 9.91369 28.1051 10.8156 28.4497C11.7175 28.7942 12.7749 28.9664 13.9877 28.9664C15.5116 28.9664 16.8334 28.6689 17.953 28.0738C19.0725 27.4787 20.0055 26.5391 20.7519 25.255C21.4983 23.9709 22.0737 22.311 22.478 20.2752L26.1166 2H33.5339L29.8486 20.745C28.8845 25.5996 27.003 29.264 24.204 31.7383C21.405 34.2125 17.7197 35.4497 13.1481 35.4497Z" fill="#E5C73F"/>
<path d="M50.0984 35.2617C48.077 35.2617 46.3043 34.8702 44.7804 34.0872C43.2876 33.3043 42.168 32.0984 41.4216 30.4698C40.6753 28.8098 40.4109 26.6801 40.6286 24.0805C40.8152 21.0738 41.4216 18.4586 42.4479 16.2349C43.5053 14.0112 44.9359 12.2886 46.7397 11.0671C48.5435 9.84564 50.6738 9.2349 53.1307 9.2349C55.0899 9.2349 56.8937 9.68904 58.542 10.5973C60.1903 11.4743 61.512 12.7584 62.5072 14.4497C63.5024 16.1096 64 18.1454 64 20.557C64 22.6555 63.6423 24.613 62.9271 26.4295C62.2118 28.2148 61.2166 29.7651 59.9415 31.0805C58.6975 32.396 57.2358 33.4295 55.5564 34.1812C53.8771 34.9016 52.0577 35.2617 50.0984 35.2617ZM32.2317 44L39.0425 9.61074H45.9466L44.9204 14.6376L43.3343 22.1544L42.3546 29.6711L39.509 44H32.2317ZM49.2588 29.2013C50.7204 29.2013 51.9955 28.8568 53.084 28.1678C54.1725 27.4474 55.0277 26.4765 55.6497 25.255C56.3028 24.0022 56.6294 22.5459 56.6294 20.8859C56.6294 19.1633 56.1318 17.8009 55.1366 16.7987C54.1414 15.7964 52.7264 15.2953 50.8915 15.2953C49.492 15.2953 48.2325 15.6555 47.1129 16.3758C45.9933 17.0649 45.1225 18.0358 44.5005 19.2886C43.8785 20.5101 43.5675 21.9508 43.5675 23.6107C43.5675 25.3333 44.0651 26.6957 45.0603 27.698C46.0555 28.7002 47.455 29.2013 49.2588 29.2013Z" fill="#E5C73F"/>
<path d="M282.575 35.4376C281.274 35.4376 280.152 35.222 279.207 34.7908C278.278 34.3597 277.542 33.7209 277 32.8746L279.974 29.9524C280.314 30.5113 280.709 30.9345 281.158 31.2219C281.607 31.5093 282.103 31.653 282.645 31.653C283.28 31.653 283.791 31.4694 284.178 31.1021C284.581 30.7189 284.852 30.152 284.991 29.4015L286.408 22.0001H280.787L281.507 18.3353H291.682L289.568 29.138C289.274 30.6869 288.824 31.9245 288.22 32.8507C287.616 33.7609 286.842 34.4236 285.897 34.8387C284.953 35.238 283.845 35.4376 282.575 35.4376Z" fill="white"/>
<path d="M300.408 35.4376C298.766 35.4376 297.326 35.1262 296.087 34.5034C294.864 33.8806 293.911 33.0183 293.23 31.9165C292.564 30.7987 292.231 29.5133 292.231 28.0601C292.231 26.607 292.479 25.2657 292.974 24.0361C293.47 22.8065 294.175 21.7446 295.088 20.8504C296.002 19.9402 297.086 19.2376 298.341 18.7425C299.611 18.2475 301.02 18 302.569 18C304.195 18 305.596 18.2635 306.773 18.7904C307.966 19.3174 308.926 20.0839 309.654 21.0899L306.355 23.7726C305.813 23.086 305.225 22.6069 304.59 22.3354C303.955 22.064 303.211 21.9282 302.36 21.9282C301.523 21.9282 300.764 22.072 300.083 22.3594C299.417 22.6468 298.844 23.054 298.364 23.581C297.884 24.1079 297.512 24.7307 297.249 25.4493C297.001 26.1519 296.877 26.9184 296.877 27.7487C296.877 28.4993 297.04 29.162 297.365 29.7368C297.69 30.2957 298.163 30.7348 298.782 31.0542C299.401 31.3576 300.153 31.5093 301.035 31.5093C301.748 31.5093 302.429 31.3896 303.08 31.15C303.746 30.9105 304.412 30.5113 305.077 29.9524L306.82 33.4255C305.983 34.0643 305.016 34.5593 303.916 34.9106C302.816 35.2619 301.647 35.4376 300.408 35.4376ZM302.894 32.683L304.125 26.3595H308.19L306.82 33.4255L302.894 32.683Z" fill="white"/>
<path d="M312.849 35.1022L315.381 22.0959H310.386L311.13 18.3353H325.695L324.952 22.0959H319.981L317.449 35.1022H312.849Z" fill="white"/>
<path d="M325.542 35.0012C325.169 35.0012 324.864 34.9278 324.628 34.7811C324.391 34.6253 324.232 34.4099 324.15 34.1348C324.077 33.8507 324.077 33.5115 324.15 33.1173L325.501 26.2967H325.773L324.437 33.0485C324.318 33.6169 324.355 34.0432 324.546 34.3274C324.737 34.6024 325.078 34.7399 325.569 34.7399C325.805 34.7399 326.028 34.7032 326.237 34.6299C326.446 34.5565 326.637 34.4465 326.81 34.2999L326.96 34.4924C326.769 34.6666 326.546 34.7949 326.292 34.8774C326.037 34.9599 325.787 35.0012 325.542 35.0012ZM323.782 28.1119L323.823 27.8506H327.847L327.806 28.1119H323.782Z" fill="white"/>
<path d="M331.628 35.0012C330.982 35.0012 330.423 34.8866 329.95 34.6574C329.486 34.4282 329.132 34.0982 328.886 33.6673C328.64 33.2273 328.518 32.6956 328.518 32.0722C328.518 31.2654 328.681 30.5412 329.009 29.8995C329.336 29.2578 329.782 28.749 330.346 28.3731C330.919 27.9973 331.564 27.8093 332.283 27.8093C332.883 27.8093 333.397 27.9239 333.824 28.1531C334.252 28.3823 334.579 28.7123 334.807 29.1432C335.043 29.5741 335.161 30.092 335.161 30.6971C335.161 30.8162 335.152 30.94 335.134 31.0683C335.125 31.1875 335.111 31.2975 335.093 31.3984H328.736L328.791 31.1371H334.97L334.861 31.2884C334.97 30.5916 334.925 30.0049 334.725 29.5282C334.525 29.0515 334.211 28.6894 333.783 28.4419C333.365 28.1944 332.865 28.0706 332.283 28.0706C331.619 28.0706 331.019 28.2448 330.482 28.5931C329.955 28.9415 329.536 29.4182 329.227 30.0233C328.927 30.6191 328.777 31.3021 328.777 32.0722C328.777 32.9339 329.022 33.594 329.514 34.0523C330.005 34.5107 330.714 34.7399 331.642 34.7399C332.178 34.7399 332.669 34.6482 333.115 34.4649C333.561 34.2724 333.924 34.0111 334.206 33.6811L334.37 33.8598C334.088 34.199 333.702 34.474 333.21 34.6849C332.728 34.8957 332.201 35.0012 331.628 35.0012Z" fill="white"/>
<path d="M339.607 35.0012C338.97 35.0012 338.42 34.8866 337.956 34.6574C337.501 34.419 337.151 34.0844 336.906 33.6536C336.66 33.2135 336.537 32.7001 336.537 32.1134C336.537 31.2792 336.71 30.5412 337.056 29.8995C337.401 29.2486 337.874 28.7398 338.474 28.3731C339.075 27.9973 339.761 27.8093 340.534 27.8093C341.125 27.8093 341.635 27.9102 342.062 28.1119C342.499 28.3135 342.831 28.6115 343.058 29.0057L342.853 29.1707C342.617 28.7948 342.303 28.5198 341.912 28.3456C341.521 28.1623 341.057 28.0706 340.521 28.0706C339.802 28.0706 339.161 28.2494 338.597 28.6069C338.042 28.9553 337.606 29.432 337.288 30.037C336.969 30.6421 336.81 31.3296 336.81 32.0997C336.81 32.9339 337.056 33.5848 337.547 34.0523C338.038 34.5107 338.738 34.7399 339.648 34.7399C340.157 34.7399 340.63 34.6482 341.066 34.4649C341.503 34.2724 341.862 34.0065 342.144 33.6673L342.308 33.8598C342.017 34.2265 341.63 34.5107 341.148 34.7124C340.666 34.9049 340.152 35.0012 339.607 35.0012Z" fill="white"/>
<path d="M348.53 27.8093C349.185 27.8093 349.708 27.9377 350.099 28.1944C350.49 28.4419 350.754 28.7902 350.891 29.2394C351.027 29.6795 351.036 30.1883 350.918 30.7658L350.086 34.9599H349.813L350.645 30.7658C350.809 29.9316 350.709 29.2761 350.345 28.7994C349.99 28.3135 349.376 28.0706 348.503 28.0706C347.612 28.0706 346.866 28.3227 346.266 28.8269C345.666 29.322 345.27 30.0508 345.079 31.0133L344.302 34.9599H344.029L346.048 24.7566H346.321L345.297 29.9133L345.161 29.982C345.497 29.2211 345.957 28.6711 346.539 28.3319C347.121 27.9835 347.785 27.8093 348.53 27.8093Z" fill="white"/>
</svg>
