<svg width="142" height="24" viewBox="0 0 142 24" fill="none" xmlns="http://www.w3.org/2000/svg">
<path d="M47.0866 20C45.2133 20 43.5938 19.664 42.2282 18.992C40.8801 18.3024 39.8383 17.3563 39.103 16.1538C38.3677 14.9337 38 13.5279 38 11.9363C38 10.3625 38.2714 8.89478 38.8141 7.53316C39.3744 6.17153 40.1535 4.99558 41.1514 4.00531C42.1669 2.99735 43.3662 2.21043 44.7493 1.64456C46.15 1.07869 47.7082 0.795757 49.4239 0.795757C51.0697 0.795757 52.5229 1.07869 53.7834 1.64456C55.044 2.21043 55.9982 3.02387 56.646 4.08488L53.5733 6.6313C53.1006 5.92396 52.4966 5.38462 51.7613 5.01326C51.0259 4.64191 50.1505 4.45623 49.1351 4.45623C48.1021 4.45623 47.1654 4.64191 46.325 5.01326C45.4847 5.36693 44.7581 5.87975 44.1453 6.55172C43.55 7.20601 43.0948 7.97524 42.7797 8.85942C42.4645 9.74359 42.307 10.6808 42.307 11.6711C42.307 12.6083 42.5083 13.4306 42.911 14.1379C43.3137 14.8276 43.9002 15.3669 44.6705 15.756C45.4409 16.145 46.3688 16.3395 47.4543 16.3395C48.3997 16.3395 49.2839 16.1715 50.1068 15.8355C50.9296 15.4819 51.6737 14.9337 52.339 14.191L54.8602 16.7905C53.8972 17.9222 52.7505 18.7445 51.4199 19.2573C50.1068 19.7524 48.6624 20 47.0866 20Z" fill="#121276"/>
<path d="M63.3124 19.8939C61.8768 19.8939 60.6249 19.6286 59.557 19.0981C58.489 18.5676 57.6573 17.8249 57.0621 16.87C56.4843 15.9151 56.1954 14.7922 56.1954 13.5013C56.1954 11.9098 56.5631 10.4951 57.2984 9.2573C58.0338 8.00177 59.0405 7.01149 60.3186 6.28647C61.6141 5.56145 63.0848 5.19894 64.7306 5.19894C66.1837 5.19894 67.4355 5.46419 68.486 5.9947C69.554 6.5252 70.3769 7.2679 70.9546 8.22281C71.5499 9.16004 71.8476 10.2829 71.8476 11.5915C71.8476 13.1653 71.4799 14.58 70.7446 15.8355C70.0092 17.0911 69.0025 18.0813 67.7244 18.8064C66.4463 19.5314 64.9757 19.8939 63.3124 19.8939ZM63.575 16.4987C64.3804 16.4987 65.0895 16.3042 65.7023 15.9151C66.3325 15.5084 66.8228 14.9514 67.1729 14.244C67.5231 13.5367 67.6982 12.7144 67.6982 11.7772C67.6982 10.8223 67.418 10.0531 66.8578 9.4695C66.2975 8.88594 65.5097 8.59416 64.4942 8.59416C63.6888 8.59416 62.971 8.79753 62.3407 9.20424C61.7279 9.59328 61.2377 10.1415 60.8701 10.8488C60.5199 11.5561 60.3448 12.3784 60.3448 13.3157C60.3448 14.2882 60.6249 15.0663 61.1852 15.6499C61.7455 16.2157 62.5421 16.4987 63.575 16.4987Z" fill="#121276"/>
<path d="M84.1459 5.19894C85.354 5.19894 86.3782 5.45535 87.2186 5.96817C88.059 6.46331 88.6542 7.19717 89.0044 8.16976C89.3546 9.14235 89.3896 10.3448 89.1095 11.7772L87.5337 19.6817H83.4369L84.9601 12.0424C85.1702 10.9991 85.0826 10.1945 84.6974 9.62865C84.3298 9.06278 83.647 8.77984 82.649 8.77984C81.616 8.77984 80.7494 9.08046 80.0491 9.6817C79.3663 10.2829 78.8936 11.2025 78.6309 12.4403L77.2128 19.6817H73.1159L75.9259 5.41114H79.8127L78.9986 9.44297L78.4208 8.22281C79.1036 7.17949 79.944 6.4191 80.942 5.94165C81.9574 5.44651 83.0254 5.19894 84.1459 5.19894Z" fill="#121276"/>
<path d="M96.4209 19.8939C95.1779 19.8939 94.0048 19.7524 92.9018 19.4695C91.8163 19.1866 90.976 18.8329 90.3807 18.4085L91.9564 15.4111C92.5692 15.8179 93.3133 16.145 94.1887 16.3926C95.0816 16.6401 95.9745 16.7639 96.8674 16.7639C97.8303 16.7639 98.5307 16.6401 98.9684 16.3926C99.4061 16.145 99.6249 15.809 99.6249 15.3846C99.6249 15.0486 99.4411 14.8011 99.0734 14.6419C98.7057 14.4651 98.2418 14.3236 97.6815 14.2175C97.1213 14.1114 96.5172 13.9876 95.8694 13.8462C95.2392 13.7047 94.6351 13.5102 94.0574 13.2626C93.4971 12.9973 93.0331 12.626 92.6655 12.1485C92.3153 11.6534 92.1402 11.008 92.1402 10.2122C92.1402 9.13351 92.4379 8.22281 93.0332 7.48011C93.6459 6.7374 94.4863 6.17153 95.5543 5.78249C96.6398 5.39346 97.8653 5.19894 99.231 5.19894C100.211 5.19894 101.166 5.30504 102.094 5.51724C103.021 5.72944 103.809 6.02122 104.457 6.39257L102.986 9.41645C102.321 8.99204 101.621 8.70911 100.885 8.56764C100.168 8.40849 99.4761 8.32891 98.8108 8.32891C97.8478 8.32891 97.1475 8.47038 96.7098 8.75332C96.2896 9.01857 96.0795 9.34571 96.0795 9.73475C96.0795 10.0707 96.2546 10.336 96.6048 10.5305C96.9724 10.7073 97.4364 10.8576 97.9967 10.9814C98.5569 11.0875 99.1609 11.2113 99.8087 11.3528C100.457 11.4766 101.061 11.6711 101.621 11.9363C102.181 12.1839 102.636 12.5464 102.986 13.0239C103.354 13.4836 103.538 14.1114 103.538 14.9072C103.538 15.9859 103.223 16.9054 102.592 17.6658C101.98 18.4085 101.139 18.9655 100.071 19.3369C99.0034 19.7082 97.7866 19.8939 96.4209 19.8939Z" fill="#121276"/>
<path d="M111.266 19.8939C110.11 19.8939 109.112 19.6463 108.272 19.1512C107.431 18.6384 106.836 17.8957 106.486 16.9231C106.136 15.9505 106.101 14.748 106.381 13.3157L107.93 5.41114H112.027L110.53 13.0504C110.32 14.0937 110.399 14.8983 110.767 15.4642C111.152 16.0301 111.826 16.313 112.789 16.313C113.804 16.313 114.653 16.0124 115.336 15.4111C116.036 14.8099 116.5 13.8904 116.728 12.6525L118.172 5.41114H122.269L119.459 19.6817H115.572L116.36 15.6499L116.938 16.87C116.273 17.9134 115.441 18.6826 114.443 19.1777C113.445 19.6552 112.386 19.8939 111.266 19.8939Z" fill="#121276"/>
<path d="M123.255 19.6817L127.141 0H131.238L127.352 19.6817H123.255Z" fill="#121276"/>
<path d="M136.905 19.8939C135.89 19.8939 135.023 19.6905 134.305 19.2838C133.587 18.8594 133.071 18.2582 132.756 17.4801C132.458 16.6844 132.414 15.7471 132.624 14.6684L135.067 2.25464H139.164L136.721 14.6419C136.616 15.2431 136.678 15.7206 136.905 16.0743C137.133 16.4279 137.553 16.6048 138.166 16.6048C138.446 16.6048 138.726 16.5606 139.006 16.4721C139.304 16.3837 139.575 16.2599 139.82 16.1008L140.424 19.0451C139.917 19.3634 139.356 19.5844 138.744 19.7082C138.131 19.832 137.518 19.8939 136.905 19.8939ZM131.574 8.91247L132.204 5.72944H142L141.37 8.91247H131.574Z" fill="#121276"/>
<path d="M7.39578 19.3177C5.61144 19.3177 4.12449 18.9746 2.93492 18.2886C1.74536 17.6025 0.905672 16.6506 0.415852 15.4329C-0.0564738 14.198 -0.126448 12.7487 0.20593 11.085L2.25268 1H6.52985L4.4831 11.0078C4.32566 11.8139 4.28193 12.5172 4.3519 13.1174C4.42188 13.7177 4.59681 14.2151 4.87671 14.6096C5.1741 15.0041 5.57645 15.2957 6.08376 15.4843C6.59108 15.673 7.18586 15.7673 7.86811 15.7673C8.72529 15.7673 9.46877 15.6044 10.0985 15.2785C10.7283 14.9526 11.2531 14.4381 11.673 13.7349C12.0928 13.0317 12.4164 12.1227 12.6438 11.0078L14.6906 1H18.8628L16.7898 11.2651C16.2475 13.9236 15.1892 15.9303 13.6147 17.2852C12.0403 18.6402 9.96733 19.3177 7.39578 19.3177Z" fill="#E5C73F"/>
<path d="M28.1804 19.2148C27.0433 19.2148 26.0462 19.0004 25.189 18.5716C24.3493 18.1428 23.7195 17.4825 23.2997 16.5906C22.8798 15.6816 22.7311 14.5153 22.8536 13.0917C22.9586 11.4452 23.2997 10.0131 23.877 8.7953C24.4717 7.57755 25.2764 6.63423 26.2911 5.96532C27.3057 5.29642 28.504 4.96197 29.886 4.96197C30.9881 4.96197 32.0027 5.21066 32.9299 5.70805C33.857 6.18829 34.6005 6.8915 35.1603 7.81767C35.7201 8.7267 36 9.84154 36 11.1622C36 12.3113 35.7988 13.3833 35.3965 14.3781C34.9941 15.3557 34.4343 16.2047 33.7171 16.9251C33.0173 17.6454 32.1952 18.2114 31.2505 18.623C30.3058 19.0175 29.2825 19.2148 28.1804 19.2148ZM18.1303 24L21.9614 5.16778H25.845L25.2677 7.92058L24.3755 12.0369L23.8245 16.1532L22.2238 24H18.1303ZM27.7081 15.896C28.5303 15.896 29.2475 15.7073 29.8598 15.33C30.472 14.9355 30.9531 14.4038 31.303 13.7349C31.6703 13.0488 31.854 12.2513 31.854 11.3423C31.854 10.399 31.5741 9.65287 31.0143 9.10403C30.4545 8.55518 29.6586 8.28076 28.6265 8.28076C27.8393 8.28076 27.1308 8.478 26.501 8.87248C25.8712 9.24981 25.3814 9.78151 25.0315 10.4676C24.6817 11.1365 24.5067 11.9254 24.5067 12.8345C24.5067 13.7778 24.7866 14.5239 25.3464 15.0727C25.9062 15.6215 26.6934 15.896 27.7081 15.896Z" fill="#E5C73F"/>
</svg>
